# xmcd
#
# Track frame offsets:
#	150
#	17812
#	32957
#	41792
#	55935
#	68857
#	92315
#	108737
#	123997
#	133060
#	151830
#	166984
#	177332
#	195865
#	207655
#	219200
#	231087
#	248270
#	268857
#
# Disc length: 3856 seconds
#
# Revision: 1
# Processed by: cddbd v1.4PL0 Copyright (c) Steve Scherf et al.
# Submitted via: EasyCDDAExtractor 5.0.7
#
DISCID=060f0e13
DTITLE=OMARA PORTUONDO - LA GRAN OMARA PORTUONDO
DYEAR=1900
DGENRE=Latin
TTITLE0=Y MUCHO MAS
TTITLE1=VEINTE AN~OS
TTITLE2=COMO FUE
TTITLE3=Y SOLO TU Y YO
TTITLE4=INTERLUDIO
TTITLE5=DANZA DE LOS N~AN~IGOS
TTITLE6=LA ERA ESTA PARIENDO UN CORAZON
TTITLE7=CANCION DE UN FESTIVAL
TTITLE8=POR QUE DUDAS
TTITLE9=Y TAL VEZ
TTITLE10=ESO NO LO HE DICHO YO
TTITLE11=ME ACOSTUMBRE A ESTAR SIN TI
TTITLE12=TOCAN A LA PUERTA
TTITLE13=ALLI
TTITLE14=SIBONEY
TTITLE15=NAD PARA TI
TTITLE16=ES LO QUE ME QUEDA POR VIVIR
TTITLE17=GRACIAS A LA VIDA
TTITLE18=VUELA PENA
EXTD=
EXTT0=
EXTT1=
EXTT2=
EXTT3=
EXTT4=
EXTT5=
EXTT6=
EXTT7=
EXTT8=
EXTT9=
EXTT10=
EXTT11=
EXTT12=
EXTT13=
EXTT14=
EXTT15=
EXTT16=
EXTT17=
EXTT18=
PLAYORDER=
